<mxfile host="app.diagrams.net" modified="2024-03-04T01:55:56.446Z" agent="Mozilla/5.0 (Windows NT 10.0; Win64; x64) AppleWebKit/537.36 (KHTML, like Gecko) Chrome/121.0.0.0 Safari/537.36" version="24.0.0" etag="S4FimYlqvQzGDxxtNDZU" type="github">
  <diagram name="Page-1" id="80BAJi0faSpsTrbFwq76">
    <mxGraphModel>
      <root>
        <mxCell id="0" />
        <mxCell id="1" parent="0" />
      </root>
    </mxGraphModel>
  </diagram>
</mxfile>
